<svg xmlns="http://www.w3.org/2000/svg" xmlns:xlink="http://www.w3.org/1999/xlink" width="17" height="13" viewBox="0 0 17 13">
    <defs>
        <path id="prefix__a" d="M0.002 0.026L16.983 0.026 16.983 12.991 0.002 12.991z"/>
    </defs>
    <g fill="none" fill-rule="evenodd">
        <mask id="prefix__b" fill="#fff">
            <use xlink:href="#prefix__a"/>
        </mask>
        <path fill="#5D647F" d="M15.657.026H1.327C.595.026 0 .66 0 1.436v10.146c0 .777.595 1.41 1.327 1.41h14.33c.731 0 1.326-.633 1.326-1.41V1.436c0-.777-.595-1.41-1.326-1.41z" mask="url(#prefix__b)"/>
        <path fill="#FFD100" d="M5.838 5.663H2.654c-.293 0-.531-.252-.531-.563V2.845c0-.311.238-.564.53-.564h3.185c.293 0 .53.253.53.564V5.1c0 .31-.237.563-.53.563z"/>
        <path fill="#B8BAC0" d="M3.98 9.327H2.654c-.293 0-.531-.252-.531-.564v-.281c0-.312.238-.564.53-.564H3.98c.294 0 .531.252.531.564v.281c0 .312-.237.564-.53.564zM7.43 9.327H6.103c-.293 0-.53-.252-.53-.564v-.281c0-.312.237-.564.53-.564H7.43c.293 0 .531.252.531.564v.281c0 .312-.238.564-.53.564zM10.88 9.327H9.553c-.293 0-.53-.252-.53-.564v-.281c0-.312.237-.564.53-.564h1.327c.293 0 .53.252.53.564v.281c0 .312-.237.564-.53.564zM14.33 9.327h-1.327c-.293 0-.53-.252-.53-.564v-.281c0-.312.237-.564.53-.564h1.327c.293 0 .53.252.53.564v.281c0 .312-.237.564-.53.564z"/>
        <path fill="#8A8895" d="M7.696 11.018H2.388c-.146 0-.265-.126-.265-.282 0-.155.119-.281.265-.281h5.308c.146 0 .265.126.265.281 0 .156-.119.282-.265.282zM11.145 11.018H8.757c-.147 0-.265-.126-.265-.282 0-.155.118-.281.265-.281h2.388c.147 0 .266.126.266.281 0 .156-.119.282-.266.282z"/>
        <path fill="#FF4F19" d="M12.207 5.1c-.292.346-.715.563-1.187.563-.88 0-1.592-.757-1.592-1.69 0-.935.713-1.692 1.592-1.692.472 0 .895.218 1.187.564"/>
        <path fill="#FF9500" d="M6.369 4.254L3.715 4.254 3.715 3.69 6.369 3.69 6.369 3.127 3.715 3.127 3.715 2.281 3.184 2.281 3.184 5.663 3.715 5.663 3.715 4.818 6.369 4.818z"/>
        <path fill="#FFD100" d="M14.86 3.972c0 .934-.712 1.691-1.592 1.691-.879 0-1.592-.757-1.592-1.69 0-.935.713-1.692 1.592-1.692.88 0 1.592.757 1.592 1.691z"/>
    </g>
</svg>
