<svg xmlns="http://www.w3.org/2000/svg" xmlns:xlink="http://www.w3.org/1999/xlink" width="23" height="23" viewBox="0 0 23 23">
    <defs>
        <path id="prefix__a" d="M0.002 0.021L19.246 0.021 19.246 11.864 0.002 11.864z"/>
    </defs>
    <g fill="none" fill-rule="evenodd">
        <g>
            <g transform="translate(1.586 3.172) translate(.687 1.403)">
                <path fill="#008547" d="M16.184 6.116c-1.006 0-1.924.5-2.45 1.32-.437-.227-.918-.41-1.487-.41-1.53 0-2.799 1.185-3.018 2.734h9.142c.438 0 .788-.32.875-.775-.175-1.594-1.487-2.87-3.062-2.87"/>
                <path fill="#008E49" d="M16.184 6.116c-1.006 0-1.924.5-2.45 1.32-.437-.227-.918-.41-1.487-.41-1.224 0-2.274.73-2.755 1.823h7.13c0-1.003.743-1.777 1.705-1.822-.568-.547-1.312-.911-2.143-.911"/>
                <mask id="prefix__b" fill="#fff">
                    <use xlink:href="#prefix__a"/>
                </mask>
                <path fill="#008E49" d="M18.371 11.864H.875c-.481 0-.875-.41-.875-.91V.931c0-.5.394-.91.875-.91H18.37c.481 0 .875.41.875.91v10.021c0 .501-.394.911-.875.911" mask="url(#prefix__b)"/>
                <path fill="#009F4E" d="M16.622 10.953H2.624c0-1.002-.787-1.822-1.75-1.822V2.754c.963 0 1.75-.82 1.75-1.822h13.998c0 1.002.787 1.822 1.75 1.822v6.377c-.963 0-1.75.82-1.75 1.822"/>
                <path fill="#008E49" d="M9.623 1.843c1.933 0 3.5 1.836 3.5 4.1 0 2.264-1.567 4.1-3.5 4.1s-3.5-1.836-3.5-4.1c0-2.264 1.567-4.1 3.5-4.1M4.374 5.032c.483 0 .875.408.875.91 0 .504-.392.912-.875.912S3.5 6.446 3.5 5.943c0-.503.392-.911.875-.911M14.872 5.032c.483 0 .875.408.875.91 0 .504-.392.912-.875.912s-.875-.408-.875-.911c0-.503.392-.911.875-.911"/>
                <path fill="#53B260" d="M10.06 5.487h-.874c-.263 0-.438-.182-.438-.455s.175-.456.438-.456h1.312c.262 0 .437-.182.437-.455s-.175-.456-.437-.456h-.438c0-.273-.175-.455-.437-.455s-.437.182-.437.455c-.744 0-1.313.592-1.313 1.367 0 .774.569 1.366 1.313 1.366h.874c.263 0 .438.183.438.456s-.175.455-.438.455H8.748c-.262 0-.437.183-.437.456s.175.455.437.455h.438c0 .274.175.456.437.456s.437-.182.437-.456c.744 0 1.313-.592 1.313-1.366 0-.774-.569-1.367-1.313-1.367"/>
                <path fill="#F4B45D" d="M11.373 7.027c1.69 0 3.061 1.427 3.061 3.188 0 1.761-1.37 3.189-3.061 3.189-1.691 0-3.062-1.428-3.062-3.189 0-1.76 1.37-3.188 3.062-3.188"/>
                <path fill="#EFA14A" d="M15.31 6.116c1.69 0 3.061 1.427 3.061 3.188 0 1.761-1.37 3.189-3.062 3.189-1.69 0-3.062-1.428-3.062-3.189 0-1.76 1.371-3.188 3.062-3.188"/>
                <path fill="#F4B55C" d="M15.31 11.582c-1.225 0-2.188-1.003-2.188-2.278 0-1.275.963-2.277 2.187-2.277 1.225 0 2.187 1.002 2.187 2.277 0 1.275-.962 2.278-2.187 2.278zm0-5.466c-1.707 0-3.063 1.412-3.063 3.188 0 1.777 1.356 3.189 3.062 3.189 1.706 0 3.062-1.412 3.062-3.189 0-1.776-1.356-3.188-3.062-3.188z"/>
                <path fill="#EFA14A" d="M15.31 12.447c1.705.046 3.061-1.412 3.061-3.143h-.044c-.218 0-.393.182-.437.41-.087.638-.394 1.23-.831 1.64-.35.364-.831.592-1.356.683-.219 0-.394.182-.394.41"/>
                <path fill="#FAD074" d="M15.31 6.161c-1.707-.045-3.063 1.412-3.063 3.143h.044c.219 0 .394-.182.438-.41.087-.638.393-1.23.83-1.64.35-.364.832-.592 1.357-.683.218 0 .393-.182.393-.41"/>
                <path fill="#E9863A" d="M13.428 9.623c0-1.275.963-2.278 2.187-2.278.525 0 1.007.183 1.4.547-.437-.547-1.006-.865-1.706-.865-1.224 0-2.187 1.002-2.187 2.277 0 .729.306 1.321.788 1.731-.307-.364-.482-.865-.482-1.412"/>
                <path fill="#F4B55C" d="M16.622 10.716c-.044 0-.088 0-.132-.045-.087-.092-.087-.228 0-.32.263-.273.394-.683.394-1.047 0-.137.087-.228.219-.228.13 0 .218.091.218.228 0 .501-.175 1.002-.48 1.367-.088.045-.176.045-.22.045"/>
                <path fill="#E9863A" d="M15.31 10.67c-.263 0-.438-.182-.438-.455V8.393c0-.273.175-.455.437-.455.263 0 .438.182.438.455v1.822c0 .273-.175.456-.438.456"/>
                <path fill="#E9863A" d="M16.928 11.992c-.306-1.14-1.094-2.05-2.1-2.46-.175-1.048-.83-1.959-1.662-2.505-.525.592-.875 1.366-.875 2.232 0 1.776 1.356 3.188 3.062 3.188.569.046 1.094-.137 1.575-.455"/>
                <path fill="#E67637" d="M13.91 11.035c-.307-.41-.525-.911-.525-1.458 0-.637.262-1.23.7-1.64-.088-.136-.175-.227-.263-.318-.437.41-.7 1.002-.7 1.685 0 .729.306 1.321.788 1.731M14.872 9.577v.638c0 .273.175.456.437.456.263 0 .438-.183.438-.456v-.091c-.263-.228-.569-.41-.875-.547"/>
                <path fill="#EFA14A" d="M16.928 11.992c-.088-.32-.175-.593-.35-.866-.35.273-.788.456-1.269.456-1.224 0-2.187-1.003-2.187-2.278 0-.683.263-1.275.7-1.685-.219-.228-.437-.41-.7-.547-.525.592-.875 1.367-.875 2.232 0 1.777 1.356 3.189 3.062 3.189.613 0 1.138-.183 1.619-.501"/>
                <path fill="#E9863A" d="M16.796 11.582c-.306.227-.7.364-1.093.455-.219.046-.394.228-.394.456.613 0 1.138-.183 1.619-.501l-.132-.41"/>
                <path fill="#F4B55C" d="M13.122 7.072c-.525.592-.875 1.367-.875 2.232h.044c.219 0 .394-.182.438-.41.087-.638.393-1.184.787-1.594-.131-.046-.263-.137-.394-.228"/>
                <path fill="#EFA14A" d="M11.373 7.027c1.69 0 3.061 1.427 3.061 3.188 0 1.761-1.37 3.189-3.061 3.189-1.691 0-3.062-1.428-3.062-3.189 0-1.76 1.37-3.188 3.062-3.188"/>
                <path fill="#E9863A" d="M10.935 12.493c0 .318.044.592.131.91h.307c1.706 0 3.061-1.411 3.061-3.188 0-.319-.043-.592-.13-.91h-.307c-1.706 0-3.062 1.411-3.062 3.188"/>
                <path fill="#F4B55C" d="M11.373 12.493c-1.225 0-2.187-1.003-2.187-2.278 0-1.275.962-2.277 2.187-2.277 1.224 0 2.187 1.002 2.187 2.277 0 1.275-.963 2.278-2.187 2.278zm0-5.466c-1.706 0-3.062 1.412-3.062 3.188 0 1.777 1.356 3.189 3.062 3.189 1.706 0 3.061-1.412 3.061-3.189 0-1.776-1.355-3.188-3.061-3.188z"/>
                <path fill="#EFA14A" d="M11.373 13.358c1.706.046 3.061-1.412 3.061-3.143h-.043c-.219 0-.394.182-.438.41-.087.638-.393 1.23-.83 1.64-.35.364-.832.592-1.357.683-.218 0-.393.182-.393.41"/>
                <path fill="#FAD074" d="M11.373 7.072C9.667 7.027 8.31 8.484 8.31 10.215h.044c.218 0 .393-.182.437-.41.087-.638.394-1.23.831-1.64.35-.364.831-.592 1.356-.683.219 0 .394-.182.394-.41"/>
                <path fill="#E9863A" d="M9.492 10.534c0-1.275.962-2.278 2.187-2.278.525 0 1.006.183 1.4.547-.438-.547-1.007-.865-1.706-.865-1.225 0-2.187 1.002-2.187 2.277 0 .729.306 1.321.787 1.731-.306-.364-.481-.865-.481-1.412"/>
                <path fill="#F4B55C" d="M12.685 11.627c-.044 0-.088 0-.131-.045-.088-.092-.088-.228 0-.32.262-.273.393-.683.393-1.047 0-.137.088-.228.219-.228s.219.091.219.228c0 .501-.175 1.002-.481 1.367-.088.045-.175.045-.22.045"/>
                <path fill="#E9863A" d="M11.373 11.582c-.263 0-.438-.183-.438-.456V9.304c0-.273.175-.455.438-.455.262 0 .437.182.437.455v1.822c0 .273-.175.456-.437.456"/>
                <path fill="#EFA14A" d="M13.385 9.35c.087.273.175.546.175.865 0 1.275-.963 2.278-2.187 2.278-.132 0-.307 0-.438-.046v.046c0 .318.044.592.131.91h.307c1.706 0 3.061-1.411 3.061-3.188 0-.319-.043-.592-.13-.91h-.307c-.219 0-.394 0-.612.045"/>
                <path fill="#EFA14A" d="M13.56 9.76c1.69 0 3.062 1.427 3.062 3.188 0 1.761-1.371 3.189-3.062 3.189-1.691 0-3.062-1.428-3.062-3.189 0-1.76 1.37-3.188 3.062-3.188"/>
                <path fill="#F4B55C" d="M13.56 15.226c-1.225 0-2.187-1.003-2.187-2.278 0-1.275.962-2.277 2.187-2.277 1.224 0 2.187 1.002 2.187 2.277 0 1.275-.963 2.278-2.187 2.278zm0-5.466c-1.706 0-3.062 1.412-3.062 3.188 0 1.777 1.356 3.189 3.062 3.189 1.706 0 3.062-1.412 3.062-3.189 0-1.776-1.356-3.188-3.062-3.188z"/>
                <path fill="#EFA14A" d="M13.56 16.091c1.706.046 3.062-1.412 3.062-3.143h-.044c-.219 0-.394.182-.438.41-.087.638-.393 1.23-.83 1.64-.35.364-.832.592-1.357.683-.218 0-.393.182-.393.41"/>
                <path fill="#FAD074" d="M13.56 9.805c-1.706-.045-3.062 1.412-3.062 3.143h.044c.218 0 .393-.182.437-.41.087-.638.394-1.23.831-1.64.35-.364.831-.592 1.356-.683.219 0 .394-.182.394-.41"/>
                <path fill="#E9863A" d="M11.679 13.267c0-1.275.962-2.278 2.187-2.278.525 0 1.006.183 1.4.547-.438-.547-1.006-.865-1.706-.865-1.225 0-2.187 1.002-2.187 2.277 0 .729.306 1.321.787 1.731-.306-.364-.481-.865-.481-1.412"/>
                <path fill="#F4B55C" d="M14.872 14.36c-.044 0-.088 0-.131-.045-.088-.092-.088-.228 0-.32.262-.273.393-.683.393-1.047 0-.137.088-.228.219-.228s.219.091.219.228c0 .501-.175 1.002-.481 1.367-.088.045-.175.045-.22.045"/>
                <path fill="#E9863A" d="M13.56 14.315c-.263 0-.438-.183-.438-.456v-1.822c0-.273.175-.455.438-.455.262 0 .437.182.437.455v1.822c0 .273-.175.456-.437.456"/>
            </g>
            <path stroke="#FFF" stroke-width=".1" d="M0.05 0.05H20.571V18.191H0.05z" opacity=".01" transform="translate(1.586 3.172)"/>
        </g>
        <path stroke="#FFF" stroke-width=".5" d="M0.25 0.25H22.75V22.75H0.25z"/>
    </g>
</svg>
