<svg xmlns="http://www.w3.org/2000/svg" xmlns:xlink="http://www.w3.org/1999/xlink" width="25" height="25" viewBox="0 0 25 25">
    <defs>
        <path id="prefix__a" d="M0 0.037L11.044 0.037 11.044 20.968 0 20.968z"/>
    </defs>
    <g fill="none" fill-rule="evenodd">
        <g transform="translate(4.839 1.613)">
            <mask id="prefix__b" fill="#fff">
                <use xlink:href="#prefix__a"/>
            </mask>
            <path fill="#5F605C" d="M9.757 20.855c.769-.136 1.287-.993 1.287-1.845V1.99c0-1.076-.86-1.953-1.919-1.953H1.92C.861.037 0 .914 0 1.991v14.707c2.26 3.132 4.652 4.593 9.757 4.157" mask="url(#prefix__b)"/>
            <path fill="#535451" d="M0 1.99v16.971c.065 2.024.588 2.024 1.473 2.003h6.578L3.726 19.84l-2.656-.034-.007-17.815c0-1.077.861-1.954 1.92-1.954H1.919C.861.037 0 .914 0 1.991" mask="url(#prefix__b)"/>
            <path fill="#FCF8EC" d="M9.125 1.12h-.989c-.126 0-.23.104-.23.233v.3c0 .277-.222.504-.495.504H3.633c-.272 0-.495-.227-.495-.505v-.206c0-.18-.144-.326-.32-.326h-.899c-.472 0-.856.39-.856.87v15.96c.034 1.938-.082 1.81 2.577 1.89h5.485c.473 0 .856-.39.856-.87V1.99c0-.48-.383-.87-.856-.87"/>
            <path fill="#E9E2CF" d="M1.92 1.12c-.473 0-.857.39-.857.87v17.816h1.022V1.991c0-.455.342-.828.78-.867-.05-.008.003-.003-.946-.004"/>
            <path fill="#787873" d="M6.769 1.435H5.152c-.171 0-.31-.141-.31-.315 0-.174.139-.316.31-.316h1.617c.17 0 .31.142.31.316 0 .174-.14.315-.31.315M4.006 1.382c-.222-.149-.168-.511.11-.571.19-.04.371.11.371.309 0 .146-.099.277-.25.309-.019.004-.168-.004-.231-.047"/>
            <path fill="#4C9FCC" d="M3.056 18.928h-.829c-.076 0-.138-.063-.138-.14v-.844c0-.077.062-.14.138-.14h.829c.076 0 .138.063.138.14v.844c0 .077-.062.14-.138.14"/>
            <path fill="#F6BE29" d="M5.007 18.928h-.829c-.076 0-.138-.063-.138-.14v-.844c0-.077.062-.14.138-.14h.829c.076 0 .138.063.138.14v.844c0 .077-.062.14-.138.14"/>
            <path fill="#DCD1B7" d="M6.958 18.928h-.829c-.076 0-.138-.063-.138-.14v-.844c0-.077.062-.14.138-.14h.829c.076 0 .138.063.138.14v.844c0 .077-.062.14-.138.14"/>
            <path fill="#DD404D" d="M8.908 18.928H8.08c-.076 0-.138-.063-.138-.14v-.844c0-.077.062-.14.138-.14h.828c.076 0 .139.063.139.14v.844c0 .077-.063.14-.139.14"/>
            <path fill="#4C9FCC" d="M18.529 14.01V5.96c0-.231-.187-.421-.415-.421H4.283c-.228 0-.414.19-.414.421v8.052c0 .232.186.421.414.421h13.831c.228 0 .415-.19.415-.421"/>
            <path fill="#4C9FCC" d="M18.529 14.01V5.96c0-.231-.187-.421-.415-.421H4.283c-.228 0-.414.19-.414.421v8.052c0 .232.186.421.414.421h13.831c.228 0 .415-.19.415-.421"/>
            <path fill="#4589BC" d="M6.05 14.01V5.96c0-.232.187-.422.416-.422H4.283c-.228 0-.414.19-.414.421v8.052c0 .232.186.421.414.421h2.183c-.229 0-.415-.19-.415-.421"/>
            <path fill="#DD404D" d="M15.115 12.588c-.321-.565-.17-1.275.327-1.662-.394-.306-.946-.36-1.403-.093-.604.355-.812 1.14-.463 1.755.35.615 1.123.825 1.728.47.048-.028.094-.06.137-.093-.128-.1-.24-.226-.326-.377"/>
            <path fill="#DA2F3E" d="M14.22 12.425c-.35-.615-.142-1.4.463-1.755l.015-.008c-.224-.005-.451.05-.659.171-.604.355-.812 1.14-.463 1.755.347.61 1.11.821 1.713.479-.428-.01-.84-.239-1.069-.642"/>
            <path fill="#F6BE29" d="M17.306 11.304c-.35-.615-1.123-.825-1.728-.47-.048.028-.093.059-.136.092.128.1.24.227.325.378.321.565.171 1.275-.326 1.662.394.306.946.36 1.402.093.605-.355.812-1.141.463-1.755"/>
            <path fill="#E3692A" d="M15.767 11.304c-.086-.151-.197-.278-.325-.378-.498.387-.648 1.097-.327 1.662.086.151.198.278.326.377.497-.386.647-1.096.326-1.661"/>
            <path fill="#E5E5E0" d="M5.566 12.351h.932c.22 0 .399-.182.399-.405 0-.223-.18-.405-.399-.405h-.932c-.22 0-.399.182-.399.405 0 .223.18.405.399.405"/>
            <path fill="#C7C6C1" d="M5.855 11.946c0-.223.18-.405.399-.405h-.688c-.22 0-.399.182-.399.405 0 .223.18.405.399.405h.688c-.22 0-.4-.182-.4-.405"/>
            <path fill="#E5E5E0" d="M7.973 12.351h.932c.22 0 .399-.182.399-.405 0-.223-.18-.405-.399-.405h-.932c-.22 0-.399.182-.399.405 0 .223.18.405.399.405"/>
            <path fill="#C7C6C1" d="M8.262 11.946c0-.223.18-.405.399-.405h-.688c-.22 0-.399.182-.399.405 0 .223.18.405.399.405h.688c-.22 0-.4-.182-.4-.405"/>
            <path fill="#E5E5E0" d="M10.38 12.351H11.312c.22 0 .4-.182.4-.405 0-.223-.18-.405-.4-.405h-.932c-.22 0-.399.182-.399.405 0 .223.18.405.399.405"/>
            <path fill="#C7C6C1" d="M10.669 11.946c0-.223.18-.405.399-.405h-.688c-.22 0-.399.182-.399.405 0 .223.18.405.399.405h.688c-.22 0-.4-.182-.4-.405"/>
            <path fill="#F6BE29" d="M7.24 8.915H5.56c-.216 0-.393-.18-.393-.398v-.85c0-.219.177-.398.392-.398H7.24c.216 0 .392.18.392.398v.85c0 .219-.176.398-.392.398"/>
            <path fill="#ED9831" d="M6.253 8.517v-.85c0-.219.177-.398.393-.398H5.559c-.215 0-.392.18-.392.398v.85c0 .219.177.398.392.398h1.087c-.216 0-.393-.18-.393-.398"/>
            <path fill="#62C0C6" d="M17.476 6.457c-.15 0-.272.124-.272.276v2.84c0 .152.122.276.272.276.149 0 .271-.124.271-.275V6.733c0-.152-.122-.276-.271-.276"/>
        </g>
        <path stroke="#FFF" stroke-width=".5" d="M0.25 0.25H24.75V24.75H0.25z"/>
    </g>
</svg>
